<svg width="634" height="154" viewBox="0 0 634 154" fill="none" xmlns="http://www.w3.org/2000/svg">
<path d="M22.9688 6.25V120H0.234375V6.25H22.9688ZM85.8594 35.4688H105.703V120C105.703 127.708 104.219 134.01 101.25 138.906C98.3333 143.854 94.2448 147.474 88.9844 149.766C83.776 152.109 77.6823 153.281 70.7031 153.281C68.0469 153.281 65.0521 152.917 61.7188 152.188C58.4375 151.458 55.2604 150.339 52.1875 148.828C49.1146 147.37 46.5885 145.599 44.6094 143.516L52.0312 128.359C54.0625 130.391 56.7188 132.109 60 133.516C63.2812 134.974 66.5104 135.703 69.6875 135.703C72.7604 135.703 75.3125 135.208 77.3438 134.219C79.4271 133.281 80.9896 131.667 82.0312 129.375C83.125 127.083 83.6719 124.01 83.6719 120.156V55.0781L85.8594 35.4688ZM38.6719 80.7031V75.0781C38.6719 68.2031 39.3229 62.1875 40.625 57.0312C41.9271 51.875 43.8021 47.5781 46.25 44.1406C48.6979 40.7031 51.6927 38.151 55.2344 36.4844C58.8281 34.7656 62.8385 33.9062 67.2656 33.9062C71.901 33.9062 75.7812 34.9219 78.9062 36.9531C82.0312 38.9323 84.5573 41.7188 86.4844 45.3125C88.4635 48.9062 89.974 53.151 91.0156 58.0469C92.1094 62.9427 92.9427 68.3073 93.5156 74.1406V82.2656C92.9427 87.7865 92.0052 92.9427 90.7031 97.7344C89.4531 102.526 87.7865 106.693 85.7031 110.234C83.6198 113.776 81.0677 116.562 78.0469 118.594C75.026 120.573 71.3802 121.562 67.1094 121.562C62.7344 121.562 58.776 120.677 55.2344 118.906C51.7448 117.135 48.75 114.531 46.25 111.094C43.8021 107.604 41.9271 103.333 40.625 98.2812C39.3229 93.1771 38.6719 87.3177 38.6719 80.7031ZM60.625 75.0781V80.7031C60.625 84.6615 60.8594 88.0729 61.3281 90.9375C61.849 93.75 62.6302 96.0677 63.6719 97.8906C64.7135 99.6615 66.0417 100.99 67.6562 101.875C69.3229 102.708 71.276 103.125 73.5156 103.125C76.6927 103.125 79.2188 102.396 81.0938 100.938C83.0208 99.4271 84.4271 97.3698 85.3125 94.7656C86.25 92.1094 86.7708 89.0625 86.875 85.625V70.8594C86.8229 67.9948 86.4844 65.4167 85.8594 63.125C85.2865 60.8333 84.4792 58.8802 83.4375 57.2656C82.3958 55.651 81.0417 54.401 79.375 53.5156C77.7604 52.6302 75.8594 52.1875 73.6719 52.1875C71.4323 52.1875 69.5052 52.6302 67.8906 53.5156C66.276 54.401 64.9219 55.7812 63.8281 57.6562C62.7865 59.4792 61.9792 61.849 61.4062 64.7656C60.8854 67.6302 60.625 71.0677 60.625 75.0781ZM143.516 53.5156V120H121.562V35.4688H142.109L143.516 53.5156ZM140.234 74.8438L134.375 75C134.271 68.6458 134.87 62.9427 136.172 57.8906C137.526 52.8385 139.427 48.5417 141.875 45C144.375 41.4062 147.344 38.6719 150.781 36.7969C154.271 34.8698 158.151 33.9062 162.422 33.9062C165.703 33.9062 168.698 34.4792 171.406 35.625C174.167 36.7708 176.536 38.5938 178.516 41.0938C180.495 43.5938 182.031 46.9271 183.125 51.0938C184.219 55.2083 184.766 60.2604 184.766 66.25V120H162.812V66.0938C162.812 62.4479 162.448 59.6354 161.719 57.6562C160.99 55.625 159.896 54.2188 158.438 53.4375C156.979 52.6042 155.156 52.1875 152.969 52.1875C150.885 52.1875 149.036 52.7865 147.422 53.9844C145.807 55.1302 144.453 56.7188 143.359 58.75C142.318 60.7812 141.51 63.1771 140.938 65.9375C140.417 68.6979 140.182 71.6667 140.234 74.8438ZM223.75 35.4688V120H201.797V35.4688H223.75ZM200.781 13.5938C200.781 10.2083 201.849 7.42188 203.984 5.23438C206.172 2.99479 209.089 1.875 212.734 1.875C216.432 1.875 219.349 2.99479 221.484 5.23438C223.62 7.42188 224.688 10.2083 224.688 13.5938C224.688 16.9271 223.594 19.7135 221.406 21.9531C219.271 24.1406 216.406 25.2344 212.812 25.2344C209.115 25.2344 206.172 24.1406 203.984 21.9531C201.849 19.7135 200.781 16.9271 200.781 13.5938ZM277.969 35.4688V51.9531H234.844V35.4688H277.969ZM244.766 14.6094H266.562V94.2188C266.562 96.5625 266.797 98.3594 267.266 99.6094C267.734 100.859 268.438 101.745 269.375 102.266C270.365 102.734 271.667 102.969 273.281 102.969C274.375 102.969 275.391 102.917 276.328 102.812C277.266 102.656 277.969 102.5 278.438 102.344V119.453C276.719 120.13 274.896 120.651 272.969 121.016C271.094 121.38 268.854 121.562 266.25 121.562C261.875 121.562 258.073 120.729 254.844 119.062C251.667 117.396 249.193 114.74 247.422 111.094C245.651 107.396 244.766 102.552 244.766 96.5625V14.6094ZM324.219 121.562C318.438 121.562 313.307 120.677 308.828 118.906C304.401 117.135 300.651 114.583 297.578 111.25C294.505 107.865 292.161 103.776 290.547 98.9844C288.932 94.1927 288.125 88.724 288.125 82.5781V75.625C288.125 68.75 288.906 62.7344 290.469 57.5781C292.031 52.3698 294.245 47.9948 297.109 44.4531C299.974 40.9115 303.49 38.2812 307.656 36.5625C311.875 34.7917 316.641 33.9062 321.953 33.9062C327.266 33.9062 331.927 34.7917 335.938 36.5625C340 38.2812 343.359 40.8854 346.016 44.375C348.672 47.8125 350.677 52.0833 352.031 57.1875C353.385 62.2917 354.062 68.2292 354.062 75V85H297.422V69.6094H332.578V67.6562C332.578 64.2188 332.214 61.3542 331.484 59.0625C330.755 56.7188 329.609 54.974 328.047 53.8281C326.484 52.6823 324.401 52.1094 321.797 52.1094C319.609 52.1094 317.76 52.5521 316.25 53.4375C314.74 54.3229 313.542 55.7031 312.656 57.5781C311.771 59.4531 311.12 61.901 310.703 64.9219C310.286 67.8906 310.078 71.4583 310.078 75.625V82.5781C310.078 86.4844 310.417 89.7656 311.094 92.4219C311.771 95.026 312.76 97.1615 314.062 98.8281C315.417 100.443 317.057 101.615 318.984 102.344C320.911 103.021 323.151 103.359 325.703 103.359C329.557 103.359 333.021 102.682 336.094 101.328C339.219 99.9219 341.875 98.0208 344.062 95.625L352.812 108.906C351.302 110.885 349.219 112.865 346.562 114.844C343.906 116.823 340.729 118.438 337.031 119.688C333.333 120.938 329.062 121.562 324.219 121.562ZM458.906 82.1094H481.641C481.328 90.651 479.609 97.8646 476.484 103.75C473.359 109.583 468.906 114.01 463.125 117.031C457.396 120.052 450.469 121.562 442.344 121.562C436.042 121.562 430.443 120.521 425.547 118.438C420.651 116.302 416.484 113.177 413.047 109.062C409.609 104.948 407.005 99.8698 405.234 93.8281C403.516 87.7344 402.656 80.7292 402.656 72.8125V53.5156C402.656 45.599 403.568 38.5938 405.391 32.5C407.266 26.4062 409.922 21.3021 413.359 17.1875C416.849 13.0208 421.042 9.89583 425.938 7.8125C430.885 5.67708 436.458 4.60938 442.656 4.60938C450.938 4.60938 457.865 6.17188 463.438 9.29688C469.01 12.4219 473.307 16.9792 476.328 22.9688C479.401 28.9062 481.25 36.1719 481.875 44.7656H459.062C458.906 39.349 458.281 35.1042 457.188 32.0312C456.146 28.9062 454.479 26.7188 452.188 25.4688C449.896 24.1667 446.719 23.5156 442.656 23.5156C439.635 23.5156 437.031 24.0625 434.844 25.1562C432.656 26.1979 430.859 27.8906 429.453 30.2344C428.047 32.5781 427.005 35.651 426.328 39.4531C425.703 43.2552 425.391 47.8906 425.391 53.3594V72.8125C425.391 78.1771 425.677 82.7604 426.25 86.5625C426.823 90.3125 427.734 93.3854 428.984 95.7812C430.234 98.1771 431.927 99.9219 434.062 101.016C436.25 102.109 439.01 102.656 442.344 102.656C446.198 102.656 449.297 102.083 451.641 100.938C454.036 99.7917 455.807 97.7344 456.953 94.7656C458.099 91.7969 458.75 87.5781 458.906 82.1094ZM532.109 100.547V61.4844C532.109 58.9323 531.797 56.901 531.172 55.3906C530.599 53.8802 529.714 52.7865 528.516 52.1094C527.37 51.3802 525.964 51.0156 524.297 51.0156C522.422 51.0156 520.859 51.4062 519.609 52.1875C518.359 52.9688 517.422 54.0885 516.797 55.5469C516.224 57.0052 515.938 58.75 515.938 60.7812H493.984C493.984 57.1354 494.688 53.6979 496.094 50.4688C497.5 47.1875 499.557 44.3229 502.266 41.875C505.026 39.375 508.307 37.4219 512.109 36.0156C515.911 34.6094 520.182 33.9062 524.922 33.9062C530.547 33.9062 535.547 34.8698 539.922 36.7969C544.297 38.6719 547.76 41.6667 550.312 45.7812C552.865 49.8958 554.141 55.2344 554.141 61.7969V99.4531C554.141 104.193 554.375 108.047 554.844 111.016C555.365 113.984 556.12 116.536 557.109 118.672V120H535.078C534.089 117.656 533.333 114.74 532.812 111.25C532.344 107.708 532.109 104.141 532.109 100.547ZM534.766 68.3594L534.844 81.4844H526.797C524.714 81.4844 522.891 81.8229 521.328 82.5C519.818 83.1771 518.542 84.1406 517.5 85.3906C516.458 86.5885 515.677 87.9948 515.156 89.6094C514.688 91.224 514.453 92.9427 514.453 94.7656C514.453 96.7969 514.74 98.5156 515.312 99.9219C515.885 101.328 516.745 102.396 517.891 103.125C519.036 103.854 520.391 104.219 521.953 104.219C524.349 104.219 526.432 103.724 528.203 102.734C529.974 101.745 531.276 100.547 532.109 99.1406C532.995 97.7344 533.281 96.4323 532.969 95.2344L537.969 103.75C537.344 105.677 536.484 107.682 535.391 109.766C534.349 111.849 533.021 113.776 531.406 115.547C529.792 117.318 527.786 118.776 525.391 119.922C523.047 121.016 520.26 121.562 517.031 121.562C512.5 121.562 508.359 120.521 504.609 118.438C500.859 116.354 497.891 113.438 495.703 109.688C493.568 105.938 492.5 101.484 492.5 96.3281C492.5 92.0573 493.177 88.2031 494.531 84.7656C495.938 81.276 498.021 78.3333 500.781 75.9375C503.542 73.4896 507.031 71.6146 511.25 70.3125C515.469 69.0104 520.417 68.3594 526.094 68.3594H534.766ZM593.281 0V120H571.328V0H593.281ZM633.594 0V120H611.641V0H633.594Z" fill="white"/>
</svg>
